<svg
  xmlns="http://www.w3.org/2000/svg"
  width="1200"
  height="630"
  viewBox="0 0 1200 630"
  role="img"
  aria-label="Themis — a theme orchestrator CLI for Linux and macOS"
>
  <defs>
    <linearGradient id="bg" x1="0" y1="0" x2="1" y2="1">
      <stop offset="0" stop-color="#1b1f2a" />
      <stop offset="1" stop-color="#2e3440" />
    </linearGradient>
  </defs>
  <rect width="1200" height="630" fill="url(#bg)" />
  <g transform="translate(96 207) scale(1.7)" fill="#88c0d0">
    <path
      fill-rule="evenodd"
      d="M81 36 64 0 47 36l-1 2-9-10a6 6 0 0 0-9 9l10 10h-2L0 64l36 17h2L28 91a6 6 0 1 0 9 9l9-10 1 2 17 36 17-36v-2l9 10a6 6 0 1 0 9-9l-9-9 2-1 36-17-36-17-2-1 9-9a6 6 0 1 0-9-9l-9 10v-2Zm-17 2-2 5c-4 8-11 15-19 19l-5 2 5 2c8 4 15 11 19 19l2 5 2-5c4-8 11-15 19-19l5-2-5-2c-8-4-15-11-19-19l-2-5Z"
      clip-rule="evenodd"
    />
    <path
      d="M118 19a6 6 0 0 0-9-9l-3 3a6 6 0 1 0 9 9l3-3Zm-96 4c-2 2-6 2-9 0l-3-3a6 6 0 1 1 9-9l3 3c3 2 3 6 0 9Zm0 82c-2-2-6-2-9 0l-3 3a6 6 0 1 0 9 9l3-3c3-2 3-6 0-9Zm96 4a6 6 0 0 1-9 9l-3-3a6 6 0 1 1 9-9l3 3Z"
    />
  </g>
  <text x="430" y="290" font-family="system-ui, sans-serif" font-size="120" font-weight="700" fill="#eceff4">
    Themis
  </text>
  <text x="432" y="360" font-family="system-ui, sans-serif" font-size="40" fill="#d8dee9">
    A theme orchestrator CLI
  </text>
  <text x="432" y="416" font-family="system-ui, sans-serif" font-size="40" fill="#88c0d0">
    Linux &amp; macOS
  </text>
</svg>
